<?xml version="1.0" encoding="utf-8"?>
<!DOCTYPE svg PUBLIC "-//W3C//DTD SVG 20010904//EN" "http://www.w3.org/TR/2001/REC-SVG-20010904/DTD/svg10.dtd">
<svg version="1.0" xmlns="http://www.w3.org/2000/svg" width="502pt" height="502pt" viewBox="0 0 502 502" style="" preserveAspectRatio="xMidYMid meet">
<g fill="#FFFFFFFF" stroke="#FFFFFFFF">
<path d="M 238.155 150.589 C 234.666 151.353 229.677 153.139 227.070 154.559 C 223.812 156.332 200.112 179.410 151.320 228.320 C 71.041 308.794 75.489 303.468 75.571 319.000 C 75.607 325.750 76.087 328.471 77.902 332.216 C 81.324 339.274 87.364 345.540 93.786 348.694 C 98.762 351.138 100.662 351.500 108.500 351.500 C 124.381 351.500 120.738 354.460 190.498 284.885 L 251.496 224.048 312.498 284.884 C 382.263 354.458 378.621 351.500 394.500 351.500 C 402.338 351.500 404.238 351.138 409.214 348.694 C 415.606 345.555 421.629 339.325 425.143 332.216 C 428.485 325.456 428.437 311.716 425.045 304.500 C 423.159 300.488 408.661 285.433 351.683 228.320 C 303.369 179.891 279.172 156.323 275.981 154.586 C 266.513 149.433 250.952 147.789 238.155 150.589 "/></g>
</svg>
