<?xml version="1.0" encoding="utf-8"?>
<!DOCTYPE svg PUBLIC "-//W3C//DTD SVG 20010904//EN" "http://www.w3.org/TR/2001/REC-SVG-20010904/DTD/svg10.dtd">
<svg version="1.0" xmlns="http://www.w3.org/2000/svg" width="736pt" height="520pt" viewBox="0 0 736 520" style="" preserveAspectRatio="xMidYMid meet">
<g fill="#FFFFFFFF" stroke="#FFFFFFFF">
<path d="M 273.000 3.087 C 176.093 5.376 109.987 10.259 82.501 17.161 C 56.964 23.573 35.427 41.139 23.504 65.279 C 13.940 84.643 8.311 118.552 3.798 184.000 C 2.081 208.894 2.081 311.106 3.798 336.000 C 9.500 418.694 16.261 449.096 33.875 471.263 C 49.905 491.435 69.054 501.532 100.500 506.393 C 198.973 521.618 537.027 521.618 635.500 506.393 C 666.946 501.532 686.095 491.435 702.125 471.263 C 719.739 449.096 726.500 418.694 732.202 336.000 C 733.919 311.106 733.919 208.894 732.202 184.000 C 726.500 101.306 719.739 70.904 702.125 48.737 C 686.095 28.565 666.946 18.468 635.500 13.607 C 577.832 4.691 410.602 -0.162 273.000 3.087 M 391.750 207.029 C 442.488 235.877 484.000 259.715 484.000 260.001 C 484.000 260.287 441.138 284.905 388.750 314.707 L 293.500 368.892 293.246 259.844 L 292.991 150.797 296.246 152.687 C 298.036 153.727 341.013 178.180 391.750 207.029 "/></g>
</svg>
