<!--?xml version="1.0" encoding="utf-8"?-->
<!-- Generator: Adobe Illustrator 18.0.0, SVG Export Plug-In . SVG Version: 6.00 Build 0)  -->

<svg version="1.1" id="_x32_" xmlns="http://www.w3.org/2000/svg" xmlns:xlink="http://www.w3.org/1999/xlink" x="0px" y="0px" viewBox="0 0 512 512" style="width: 64px; height: 64px; opacity: 1;" xml:space="preserve">
<style type="text/css">
	.st0{fill:#4B4B4B;}
</style>
<g>
	<path class="st0" d="M0,381.519c0,12.981,10.523,23.504,23.504,23.504h464.993c12.981,0,23.504-10.523,23.504-23.504V225.132H0
		V381.519z M341.757,342.769H485.32v35.573H341.757V342.769z M186.759,276.705c18.945,0,34.303,15.358,34.303,34.303
		s-15.358,34.302-34.303,34.302s-34.303-15.358-34.303-34.302S167.814,276.705,186.759,276.705z M81.31,276.705
		c18.945,0,34.303,15.358,34.303,34.303S100.255,345.31,81.31,345.31s-34.302-15.358-34.302-34.302S62.365,276.705,81.31,276.705z" style="fill: rgb(255, 187, 116);"></path>
	<polygon class="st0" points="401.536,106.978 110.464,106.978 0,199.722 512,199.722 	" style="fill: rgb(255, 187, 116);"></polygon>
</g>
</svg>
